<?xml version="1.0" standalone="no"?>
<!DOCTYPE svg PUBLIC "-//W3C//DTD SVG 20010904//EN"
 "http://www.w3.org/TR/2001/REC-SVG-20010904/DTD/svg10.dtd">
<svg version="1.0" xmlns="http://www.w3.org/2000/svg"
 width="225.000000pt" height="52.000000pt" viewBox="0 0 225.000000 52.000000"
 preserveAspectRatio="xMidYMid meet">
<metadata>
Created by potrace 1.10, written by Peter Selinger 2001-2011
</metadata>
<g transform="translate(0.000000,52.000000) scale(0.050000,-0.050000)"
fill="#ffffff" stroke="none">
<path d="M0 520 l0 -520 2250 0 2250 0 0 520 0 520 -2250 0 -2250 0 0 -520z
m1251 185 c-7 -125 3 -150 50 -125 124 67 259 -36 259 -198 0 -205 -119 -309
-265 -233 -30 16 -55 20 -55 10 0 -11 -18 -19 -40 -19 -38 0 -40 13 -40 330
l0 330 48 0 c44 0 47 -7 43 -95z m489 -23 l0 -118 70 21 c152 47 210 -33 210
-286 0 -153 -2 -159 -47 -159 -45 0 -47 5 -47 168 -1 193 -8 212 -83 212 -88
0 -103 -32 -103 -215 0 -163 -1 -168 -45 -161 -80 11 -73 656 6 656 34 0 39
-15 39 -118z m1401 -87 l1 -205 84 95 c119 135 217 141 106 7 -89 -110 -90
-96 19 -236 90 -114 91 -116 41 -116 -38 0 -70 26 -125 99 -86 115 -127 108
-127 -21 0 -65 -7 -78 -40 -78 -38 0 -40 13 -40 330 0 317 2 330 40 330 37 0
40 -14 41 -205z m-2599 127 c32 -33 58 -78 58 -100 0 -63 -64 -52 -104 18 -54
96 -236 80 -236 -21 0 -48 56 -89 173 -127 306 -100 177 -447 -133 -354 -123
37 -197 182 -92 182 38 0 52 -10 52 -39 0 -76 166 -112 229 -50 73 74 23 144
-144 198 -118 38 -165 90 -165 182 0 162 237 235 362 111z m1881 -160 c72 -59
91 -422 22 -422 -25 0 -45 8 -45 18 0 11 -28 5 -62 -12 -122 -61 -262 36 -231
160 16 64 104 114 201 114 87 0 105 27 53 79 -51 51 -71 51 -121 1 -42 -42
-120 -55 -120 -19 0 100 210 156 303 81z m479 0 c74 -59 80 -422 7 -422 -46 0
-48 5 -53 185 l-6 185 -62 6 c-90 9 -112 -31 -115 -216 -3 -152 -5 -160 -48
-160 -44 0 -45 5 -45 220 0 207 2 220 40 220 22 0 40 -10 40 -21 0 -12 20 -8
44 10 60 42 142 39 198 -7z m881 0 c72 -59 91 -422 22 -422 -25 0 -45 8 -45
18 0 11 -28 5 -62 -12 -122 -61 -262 36 -231 160 17 66 105 114 210 114 70 0
78 5 69 41 -21 77 -166 94 -166 18 0 -10 -22 -19 -50 -19 -63 0 -63 28 -1 91
62 62 184 67 254 11z m397 -2 c0 -29 -13 -40 -48 -40 -81 0 -102 -50 -97 -223
4 -155 4 -157 -45 -157 l-50 0 0 220 c0 207 2 220 40 220 22 0 40 -11 40 -24
0 -15 13 -12 34 10 49 48 126 45 126 -6z m-3403 -148 c-2 -186 6 -212 65 -212
101 0 118 30 118 211 0 167 1 169 50 169 l50 0 -5 -220 c-4 -194 -9 -220 -40
-220 -19 0 -35 9 -35 20 0 10 -30 5 -67 -13 -154 -73 -232 17 -233 268 0 162
1 165 49 165 49 0 49 -2 48 -168z m3519 -224 c8 -53 -52 -81 -90 -42 -15 15
-22 42 -14 62 19 48 96 33 104 -20z"/>
<path d="M1280 490 c-37 -44 -41 -192 -8 -245 68 -107 208 -29 208 115 0 134
-128 217 -200 130z"/>
<path d="M2217 321 c-38 -31 -43 -45 -25 -75 50 -82 178 -43 196 59 12 69 -94
79 -171 16z"/>
<path d="M3577 321 c-38 -31 -43 -45 -25 -75 50 -82 178 -43 196 59 12 69 -94
79 -171 16z"/>
</g>
</svg>
